<svg width="10" height="19" viewBox="0 0 10 19" fill="none" xmlns="http://www.w3.org/2000/svg">
<path id="Vector" d="M9.76383 8.93925L1.27781 0.713914C1.13622 0.5766 0.948103 0.5 0.752481 0.5C0.556858 0.5 0.368743 0.5766 0.22715 0.713914L0.218013 0.723208C0.149133 0.789775 0.094286 0.8699 0.0568066 0.958711C0.0193272 1.04752 0 1.14316 0 1.23981C0 1.33646 0.0193272 1.4321 0.0568066 1.52091C0.094286 1.60972 0.149133 1.68984 0.218013 1.75641L8.20915 9.50155L0.218013 17.2436C0.149133 17.3102 0.094286 17.3903 0.0568066 17.4791C0.0193272 17.5679 0 17.6635 0 17.7602C0 17.8568 0.0193272 17.9525 0.0568066 18.0413C0.094286 18.1301 0.149133 18.2102 0.218013 18.2768L0.22715 18.2861C0.368743 18.4234 0.556858 18.5 0.752481 18.5C0.948103 18.5 1.13622 18.4234 1.27781 18.2861L9.76383 10.0607C9.83846 9.98841 9.89787 9.90141 9.93847 9.80502C9.97907 9.70863 10 9.60486 10 9.5C10 9.39513 9.97907 9.29136 9.93847 9.19497C9.89787 9.09859 9.83846 9.01159 9.76383 8.93925Z" fill="#1E0342"/>
</svg>
