<svg width="24" height="25" viewBox="0 0 24 25" fill="none" xmlns="http://www.w3.org/2000/svg">
<g id="&#208;&#180;&#208;&#176;&#209;&#136;&#208;&#177;&#208;&#190;&#209;&#128;&#208;&#180;">
<path id="Vector" d="M19.0981 6.22696C18.9999 6.12852 18.8832 6.05042 18.7547 5.99714C18.6263 5.94385 18.4886 5.91642 18.3495 5.91642C18.2104 5.91642 18.0727 5.94385 17.9442 5.99714C17.8158 6.05042 17.6991 6.12852 17.6008 6.22696L12.4082 11.409L7.21556 6.21634C7.11725 6.11803 7.00054 6.04005 6.87209 5.98684C6.74364 5.93363 6.60596 5.90625 6.46693 5.90625C6.3279 5.90625 6.19022 5.93363 6.06177 5.98684C5.93332 6.04005 5.81661 6.11803 5.7183 6.21634C5.61998 6.31466 5.542 6.43137 5.48879 6.55982C5.43559 6.68827 5.4082 6.82594 5.4082 6.96498C5.4082 7.10401 5.43559 7.24168 5.48879 7.37013C5.542 7.49858 5.61998 7.6153 5.7183 7.71361L10.9109 12.9063L5.7183 18.0989C5.61998 18.1972 5.542 18.3139 5.48879 18.4424C5.43559 18.5708 5.4082 18.7085 5.4082 18.8475C5.4082 18.9866 5.43559 19.1242 5.48879 19.2527C5.542 19.3811 5.61998 19.4978 5.7183 19.5962C5.81661 19.6945 5.93332 19.7725 6.06177 19.8257C6.19022 19.8789 6.3279 19.9062 6.46693 19.9062C6.60596 19.9062 6.74364 19.8789 6.87209 19.8257C7.00054 19.7725 7.11725 19.6945 7.21556 19.5962L12.4082 14.4035L17.6008 19.5962C17.6992 19.6945 17.8159 19.7725 17.9443 19.8257C18.0728 19.8789 18.2104 19.9062 18.3495 19.9062C18.4885 19.9062 18.6262 19.8789 18.7546 19.8257C18.8831 19.7725 18.9998 19.6945 19.0981 19.5962C19.1964 19.4978 19.2744 19.3811 19.3276 19.2527C19.3808 19.1242 19.4082 18.9866 19.4082 18.8475C19.4082 18.7085 19.3808 18.5708 19.3276 18.4424C19.2744 18.3139 19.1964 18.1972 19.0981 18.0989L13.9055 12.9063L19.0981 7.71361C19.5016 7.31009 19.5016 6.63048 19.0981 6.22696Z" fill="#0C0D0D"/>
</g>
</svg>
