<svg width="20" height="20" viewBox="0 0 20 20" fill="none" xmlns="http://www.w3.org/2000/svg">
<g id="Icon" clip-path="url(#clip0_992_6788)">
<path id="Icon_2" d="M9.36597 1.95109C9.56555 1.33692 10.4344 1.33692 10.634 1.95109L12.0957 6.44894C12.1849 6.7236 12.4409 6.90956 12.7297 6.90957L17.459 6.90975C18.1048 6.90978 18.3733 7.73614 17.8509 8.11575L14.0248 10.8958C13.7912 11.0655 13.6934 11.3664 13.7827 11.6411L15.244 16.139C15.4435 16.7532 14.7406 17.2639 14.2181 16.8844L10.3918 14.1047C10.1582 13.9349 9.84181 13.9349 9.60816 14.1047L5.78191 16.8844C5.25944 17.2639 4.55649 16.7532 4.75603 16.139L6.21732 11.6411C6.30655 11.3664 6.20879 11.0655 5.97515 10.8958L2.14911 8.11575C1.62667 7.73614 1.89517 6.90978 2.54096 6.90975L7.27034 6.90957C7.55914 6.90956 7.81509 6.7236 7.90434 6.44894L9.36597 1.95109Z" fill="#E68E0A" stroke="#E68E0A" stroke-width="1.33333"/>
</g>
<defs>
<clipPath id="clip0_992_6788">
<rect width="20" height="20" fill="white"/>
</clipPath>
</defs>
</svg>
