<svg width="222" height="107" viewBox="0 0 222 107" fill="none" xmlns="http://www.w3.org/2000/svg">
<g id="Group 29">
<g id="Group 28">
<path id="T" d="M6.74455 8.07709H1.00214C0.726418 8.07709 0.487814 7.99226 0.286325 7.82258C0.0954418 7.6423 0 7.42491 0 7.1704V5.50016C0 5.25626 0.0954418 5.04947 0.286325 4.87979C0.487814 4.69951 0.726418 4.60938 1.00214 4.60938H16.7182C16.9939 4.60938 17.2007 4.69951 17.3386 4.87979C17.4871 5.04947 17.5613 5.26156 17.5613 5.51607V7.1863C17.5613 7.43021 17.4871 7.6423 17.3386 7.82258C17.1901 7.99226 16.978 8.07709 16.7023 8.07709H10.7531V27.9767C10.7531 28.2524 10.663 28.491 10.4827 28.6925C10.313 28.894 10.1062 28.9948 9.86232 28.9948H7.61944C7.37553 28.9948 7.16874 28.894 6.99906 28.6925C6.82939 28.491 6.74455 28.2524 6.74455 27.9767V8.07709Z" fill="#1E0342"/>
<path id="h" d="M22.001 1.79511C22.001 1.50878 22.0805 1.27018 22.2396 1.07929C22.4093 0.888411 22.6107 0.792969 22.844 0.792969H25.0233C25.2672 0.792969 25.4687 0.888411 25.6278 1.07929C25.7868 1.27018 25.8664 1.50878 25.8664 1.79511V13.8367C26.7784 12.2884 28.1199 11.2969 29.8908 10.8621C30.4529 10.7242 31.1634 10.6553 32.0224 10.6553C32.8919 10.6553 33.7032 10.8462 34.4561 11.2279C35.2091 11.5991 35.8082 12.1134 36.2536 12.7709C37.049 13.9692 37.4466 15.7349 37.4466 18.0679V27.9462C37.4466 28.2643 37.3512 28.5188 37.1603 28.7097C36.9694 28.9006 36.6884 28.996 36.3172 28.996H34.7584C34.3554 28.996 34.0585 28.8953 33.8676 28.6938C33.6767 28.4923 33.5812 28.2431 33.5812 27.9462V18.052C33.5812 15.3372 32.5844 13.9798 30.5907 13.9798C29.4772 13.9798 28.4274 14.4677 27.4412 15.4433C26.3913 16.5037 25.8664 17.7233 25.8664 19.1019V27.9462C25.8664 28.2431 25.7762 28.4923 25.596 28.6938C25.4157 28.8953 25.124 28.996 24.7211 28.996H22.9872C22.6797 28.996 22.4358 28.8953 22.2555 28.6938C22.0858 28.4923 22.001 28.2431 22.001 27.9462V1.79511Z" fill="#1E0342"/>
<path id="e" d="M45.9968 20.9006L45.9809 21.2028C45.9809 22.6557 46.4422 23.8222 47.3648 24.7024C48.3298 25.6356 49.6395 26.1022 51.2938 26.1022C52.7997 26.1022 54.1995 25.6515 55.4933 24.7501C55.7372 24.5804 55.9546 24.4956 56.1454 24.4956C56.5378 24.4956 56.8347 24.6918 57.0362 25.0841L57.4657 25.9749C57.5612 26.187 57.6089 26.415 57.6089 26.6589C57.6089 26.9028 57.4975 27.1574 57.2748 27.4225C57.0627 27.677 56.7817 27.9103 56.4318 28.1224C56.0818 28.3345 55.6735 28.5201 55.2069 28.6791C54.7509 28.8382 54.279 28.9708 53.7912 29.0768C52.8156 29.2889 51.7975 29.3949 50.7371 29.3949C49.6766 29.3949 48.6055 29.1934 47.5239 28.7905C46.4528 28.3875 45.5249 27.7989 44.7401 27.0248C43.054 25.3811 42.2109 23.1594 42.2109 20.3598C42.2109 15.4498 43.9395 12.3957 47.3966 11.1974C48.4783 10.8262 49.5865 10.6406 50.7212 10.6406C51.8665 10.6406 52.8368 10.7626 53.6321 11.0065C54.4381 11.2504 55.1327 11.6109 55.716 12.0882C56.9461 13.0956 57.5612 14.5007 57.5612 16.3035C57.5612 18.0745 56.84 19.4266 55.3978 20.3598C54.1359 21.1763 52.4709 21.5846 50.403 21.5846C49.1305 21.5846 47.6617 21.3566 45.9968 20.9006ZM53.823 16.2558C53.823 14.7393 52.805 13.9811 50.7689 13.9811C48.8282 13.9811 47.4708 14.6916 46.6967 16.1126C46.421 16.611 46.2407 17.2261 46.1559 17.9578C47.0679 18.4138 48.2291 18.6418 49.6395 18.6418C52.4285 18.6418 53.823 17.8465 53.823 16.2558Z" fill="#1E0342"/>
<path id="H" d="M63.2881 5.62742C63.2881 5.3517 63.3729 5.1131 63.5426 4.91161C63.7229 4.71012 63.935 4.60938 64.1789 4.60938H66.4059C66.6498 4.60938 66.8565 4.71012 67.0262 4.91161C67.1959 5.1131 67.2807 5.3517 67.2807 5.62742V15.1398H79.1314V5.62742C79.1314 5.3517 79.2163 5.1131 79.3859 4.91161C79.5662 4.71012 79.7783 4.60938 80.0222 4.60938H82.2492C82.4931 4.60938 82.6999 4.71012 82.8696 4.91161C83.0392 5.1131 83.1241 5.3517 83.1241 5.62742V27.9608C83.1241 28.2365 83.0339 28.4751 82.8537 28.6766C82.684 28.8781 82.4772 28.9788 82.2333 28.9788H80.0063C79.7624 28.9788 79.5556 28.8781 79.3859 28.6766C79.2163 28.4751 79.1314 28.2365 79.1314 27.9608V18.6552H67.2807V27.9767C67.2807 28.2524 67.1906 28.491 67.0103 28.6925C66.8406 28.894 66.6339 28.9948 66.3899 28.9948H64.163C63.9191 28.9948 63.7123 28.894 63.5426 28.6925C63.3729 28.491 63.2881 28.2524 63.2881 27.9767V5.62742Z" fill="#1E0342"/>
<path id="a" d="M103.861 28.1539C103.861 28.716 103.585 28.997 103.034 28.997H101.491C101.077 28.997 100.828 28.9174 100.743 28.7584C100.658 28.5887 100.611 28.4402 100.6 28.313C100.59 28.1751 100.568 28.0107 100.536 27.8199C100.473 27.3002 100.383 26.7382 100.266 26.1337C99.4389 27.6502 98.1398 28.6523 96.3689 29.1401C95.7432 29.3098 95.0539 29.3947 94.301 29.3947C93.548 29.3947 92.7951 29.2674 92.0422 29.0129C91.2892 28.769 90.6211 28.4031 90.0379 27.9153C88.7229 26.8124 88.0654 25.3649 88.0654 23.5727C88.0654 21.6108 88.7865 20.1103 90.2288 19.071C91.4165 18.2333 92.9436 17.8144 94.81 17.8144C96.6764 17.8144 98.2565 18.3605 99.5503 19.4528C99.5821 19.0922 99.598 18.6415 99.598 18.1007C99.598 17.5599 99.4919 17.019 99.2798 16.4782C99.0677 15.9374 98.7655 15.4867 98.3731 15.1261C97.5672 14.4156 96.4431 14.0603 95.0009 14.0603C93.7071 14.0603 92.3921 14.4156 91.0559 15.1261C90.8014 15.264 90.5787 15.3329 90.3878 15.3329C90.1015 15.3329 89.8258 15.0519 89.5607 14.4898C89.2744 13.9172 89.1312 13.5036 89.1312 13.2491C89.1312 12.7825 89.4811 12.3318 90.1811 11.897C91.5172 11.0698 93.3041 10.6562 95.5417 10.6562C97.5778 10.6562 99.2639 11.213 100.6 12.3265C102.18 13.6627 102.97 15.5503 102.97 17.9894C102.97 19.071 102.795 20.4337 102.445 22.0774C103.347 24.6438 103.819 26.6693 103.861 28.1539ZM93.2034 21.4094C92.7686 21.7275 92.4558 22.0456 92.2649 22.3638C92.0846 22.6819 91.9945 23.0584 91.9945 23.4932C91.9945 23.9174 92.0687 24.2991 92.2171 24.6385C92.3762 24.9672 92.5936 25.2429 92.8693 25.4656C93.4526 25.9216 94.1048 26.1496 94.8259 26.1496C95.5576 26.1496 96.1568 26.0648 96.6234 25.8951C97.09 25.7254 97.493 25.5081 97.8323 25.2429C98.564 24.6703 98.9299 24.0658 98.9299 23.4295C98.8663 22.6342 98.4262 22.0085 97.6096 21.5525C96.8779 21.1283 96.0136 20.9162 95.0168 20.9162C94.2426 20.9162 93.6382 21.0806 93.2034 21.4094Z" fill="#1E0342"/>
<path id="r" d="M108.332 12.1992C108.332 11.4357 108.666 11.0539 109.334 11.0539H110.193C110.776 11.0539 111.19 11.3084 111.434 11.8175C111.784 12.5598 112.038 13.5831 112.197 14.8875C112.197 14.9087 112.203 14.9193 112.213 14.9193C112.235 14.9193 112.272 14.739 112.325 14.3785C112.378 14.0179 112.531 13.5778 112.786 13.0582C113.04 12.528 113.353 12.0826 113.724 11.722C114.477 11.0115 115.4 10.6562 116.492 10.6562C117.712 10.6562 118.56 10.8577 119.037 11.2607C119.26 11.441 119.35 11.6902 119.308 12.0083L119.053 14.0126C118.99 14.5535 118.714 14.8239 118.226 14.8239C117.993 14.8239 117.707 14.7762 117.367 14.6807C116.71 14.511 116.19 14.4262 115.808 14.4262C115.427 14.4262 115.024 14.5959 114.599 14.9352C114.175 15.264 113.809 15.6775 113.502 16.176C112.876 17.2152 112.563 18.3234 112.563 19.5005V27.9471C112.563 28.2441 112.478 28.4933 112.309 28.6947C112.139 28.8962 111.895 28.997 111.577 28.997H109.732C109.392 28.997 109.133 28.8962 108.952 28.6947C108.783 28.4933 108.698 28.2441 108.698 27.9471V16.9872C108.698 15.1208 108.634 13.8907 108.507 13.2968C108.39 12.6923 108.332 12.3265 108.332 12.1992Z" fill="#1E0342"/>
<path id="d" d="M134.896 13.2958V1.79511C134.896 1.51939 134.976 1.28608 135.135 1.0952C135.305 0.893713 135.511 0.792969 135.755 0.792969H137.966C138.21 0.792969 138.412 0.893713 138.571 1.0952C138.73 1.28608 138.809 1.51939 138.809 1.79511V22.1878C138.809 24.33 138.979 26.1063 139.318 27.5167C139.35 27.6651 139.366 27.856 139.366 28.0893C139.366 28.312 139.265 28.5188 139.064 28.7097C138.873 28.9006 138.624 28.996 138.316 28.996H137.537C136.911 28.996 136.492 28.7415 136.28 28.2325C136.004 27.5856 135.776 26.7319 135.596 25.6715C134.78 27.4 133.406 28.5506 131.476 29.1233C130.84 29.3035 130.045 29.3937 129.09 29.3937C128.146 29.3937 127.203 29.1498 126.259 28.662C125.326 28.1742 124.53 27.5114 123.873 26.6736C122.526 24.9344 121.853 22.7711 121.853 20.1836C121.853 17.5112 122.505 15.2948 123.809 13.5344C125.22 11.615 127.102 10.6553 129.456 10.6553C131.81 10.6553 133.624 11.5355 134.896 13.2958ZM125.925 20.2949C125.925 21.016 126.01 21.7212 126.179 22.4105C126.36 23.0998 126.63 23.7149 126.99 24.2557C127.796 25.4859 128.91 26.1009 130.331 26.1009C131.625 26.1009 132.759 25.5389 133.735 24.4148C134.774 23.2483 135.294 21.8697 135.294 20.279C135.294 18.349 134.79 16.8007 133.783 15.6342C132.818 14.5207 131.63 13.9639 130.22 13.9639C128.746 13.9639 127.627 14.6585 126.863 16.0477C126.238 17.2143 125.925 18.63 125.925 20.2949Z" fill="#1E0342"/>
<path id="w" d="M168.867 11.0547C169.556 11.0547 169.901 11.3728 169.901 12.0091C169.88 14.5648 169.36 17.5818 168.342 21.0602C167.547 23.7856 166.523 25.9542 165.272 27.5661C164.434 28.6478 163.517 29.1886 162.52 29.1886C161.534 29.1886 160.776 28.95 160.246 28.4728C159.715 27.9956 159.344 27.301 159.132 26.389C158.559 24.003 158.156 22.3751 157.923 21.5056L157.319 19.2945C157.149 18.69 157.016 18.234 156.921 17.9265C156.9 18.0219 156.868 18.1651 156.826 18.356C156.794 18.5469 156.751 18.7537 156.698 18.9764L156.364 20.3603C155.739 22.6084 155.251 24.1196 154.901 24.8937C154.561 25.6679 154.27 26.2724 154.026 26.7071C153.782 27.1313 153.496 27.529 153.167 27.9002C152.403 28.7591 151.566 29.1886 150.654 29.1886C148.745 29.1886 147.557 28.1759 147.09 26.1504C146.55 23.8704 145.94 21.6116 145.261 19.374L143.146 12.6613C143.071 12.4492 143.034 12.2371 143.034 12.025C143.034 11.3781 143.395 11.0547 144.116 11.0547H145.993C146.629 11.0547 147.064 11.4524 147.297 12.2477C147.923 14.4217 148.464 16.5585 148.92 18.6582L150.288 24.9256C150.383 25.3179 150.532 25.5141 150.733 25.5141C150.956 25.5141 151.168 25.3073 151.369 24.8937C151.582 24.4802 151.804 23.9764 152.038 23.3826C152.281 22.7781 152.515 22.1365 152.737 21.4578C152.96 20.7685 153.178 20.058 153.39 19.3263C153.602 18.584 153.798 17.8417 153.978 17.0993C154.339 15.6253 154.63 14.2467 154.853 12.9635L154.964 12.2954C155.092 11.6592 155.648 11.341 156.635 11.341C157.282 11.341 157.711 11.3834 157.923 11.4683C158.326 11.6485 158.66 12.0939 158.925 12.8045C159.19 13.5044 159.477 14.3686 159.784 15.3973C160.092 16.4259 160.389 17.4864 160.675 18.5787C161.386 21.3889 161.91 23.5523 162.25 25.0687C162.324 25.3763 162.435 25.53 162.584 25.53C162.785 25.53 163.04 25.2543 163.347 24.7029C163.655 24.1408 163.973 23.3667 164.302 22.3804C164.631 21.3942 164.917 20.3338 165.161 19.1991C165.659 16.9085 165.94 14.5436 166.004 12.1045C166.004 11.5637 166.237 11.2297 166.704 11.1024C166.82 11.0706 166.932 11.0547 167.038 11.0547H168.867Z" fill="#1E0342"/>
<path id="a_2" d="M188.563 28.1539C188.563 28.716 188.287 28.997 187.736 28.997H186.193C185.779 28.997 185.53 28.9174 185.445 28.7584C185.361 28.5887 185.313 28.4402 185.302 28.313C185.292 28.1751 185.27 28.0107 185.239 27.8199C185.175 27.3002 185.085 26.7382 184.968 26.1337C184.141 27.6502 182.842 28.6523 181.071 29.1401C180.445 29.3098 179.756 29.3947 179.003 29.3947C178.25 29.3947 177.497 29.2674 176.744 29.0129C175.991 28.769 175.323 28.4031 174.74 27.9153C173.425 26.8124 172.768 25.3649 172.768 23.5727C172.768 21.6108 173.489 20.1103 174.931 19.071C176.119 18.2333 177.646 17.8144 179.512 17.8144C181.379 17.8144 182.959 18.3605 184.252 19.4528C184.284 19.0922 184.3 18.6415 184.3 18.1007C184.3 17.5599 184.194 17.019 183.982 16.4782C183.77 15.9374 183.468 15.4867 183.075 15.1261C182.269 14.4156 181.145 14.0603 179.703 14.0603C178.409 14.0603 177.094 14.4156 175.758 15.1261C175.504 15.264 175.281 15.3329 175.09 15.3329C174.804 15.3329 174.528 15.0519 174.263 14.4898C173.977 13.9172 173.833 13.5036 173.833 13.2491C173.833 12.7825 174.183 12.3318 174.883 11.897C176.219 11.0698 178.006 10.6562 180.244 10.6562C182.28 10.6562 183.966 11.213 185.302 12.3265C186.882 13.6627 187.672 15.5503 187.672 17.9894C187.672 19.071 187.497 20.4337 187.147 22.0774C188.049 24.6438 188.521 26.6693 188.563 28.1539ZM177.906 21.4094C177.471 21.7275 177.158 22.0456 176.967 22.3638C176.787 22.6819 176.697 23.0584 176.697 23.4932C176.697 23.9174 176.771 24.2991 176.919 24.6385C177.078 24.9672 177.296 25.2429 177.571 25.4656C178.155 25.9216 178.807 26.1496 179.528 26.1496C180.26 26.1496 180.859 26.0648 181.326 25.8951C181.792 25.7254 182.195 25.5081 182.534 25.2429C183.266 24.6703 183.632 24.0658 183.632 23.4295C183.568 22.6342 183.128 22.0085 182.312 21.5525C181.58 21.1283 180.716 20.9162 179.719 20.9162C178.945 20.9162 178.34 21.0806 177.906 21.4094Z" fill="#1E0342"/>
<path id="r_2" d="M193.033 12.1992C193.033 11.4357 193.367 11.0539 194.035 11.0539H194.894C195.478 11.0539 195.891 11.3084 196.135 11.8175C196.485 12.5598 196.74 13.5831 196.899 14.8875C196.899 14.9087 196.904 14.9193 196.915 14.9193C196.936 14.9193 196.973 14.739 197.026 14.3785C197.079 14.0179 197.233 13.5778 197.487 13.0582C197.742 12.528 198.055 12.0826 198.426 11.722C199.179 11.0115 200.101 10.6562 201.193 10.6562C202.413 10.6562 203.261 10.8577 203.739 11.2607C203.961 11.441 204.051 11.6902 204.009 12.0083L203.754 14.0126C203.691 14.5535 203.415 14.8239 202.927 14.8239C202.694 14.8239 202.408 14.7762 202.068 14.6807C201.411 14.511 200.891 14.4262 200.509 14.4262C200.128 14.4262 199.725 14.5959 199.301 14.9352C198.876 15.264 198.511 15.6775 198.203 16.176C197.577 17.2152 197.264 18.3234 197.264 19.5005V27.9471C197.264 28.2441 197.18 28.4933 197.01 28.6947C196.84 28.8962 196.596 28.997 196.278 28.997H194.433C194.094 28.997 193.834 28.8962 193.654 28.6947C193.484 28.4933 193.399 28.2441 193.399 27.9471V16.9872C193.399 15.1208 193.335 13.8907 193.208 13.2968C193.092 12.6923 193.033 12.3265 193.033 12.1992Z" fill="#1E0342"/>
<path id="e_2" d="M210.388 20.9006L210.372 21.2028C210.372 22.6557 210.834 23.8222 211.756 24.7024C212.721 25.6356 214.031 26.1022 215.685 26.1022C217.191 26.1022 218.591 25.6515 219.885 24.7501C220.129 24.5804 220.346 24.4956 220.537 24.4956C220.929 24.4956 221.226 24.6918 221.428 25.0841L221.857 25.9749C221.953 26.187 222 26.415 222 26.6589C222 26.9028 221.889 27.1574 221.666 27.4225C221.454 27.677 221.173 27.9103 220.823 28.1224C220.473 28.3345 220.065 28.5201 219.599 28.6791C219.143 28.8382 218.671 28.9708 218.183 29.0768C217.207 29.2889 216.189 29.3949 215.129 29.3949C214.068 29.3949 212.997 29.1934 211.915 28.7905C210.844 28.3875 209.916 27.7989 209.132 27.0248C207.446 25.3811 206.603 23.1594 206.603 20.3598C206.603 15.4498 208.331 12.3957 211.788 11.1974C212.87 10.8262 213.978 10.6406 215.113 10.6406C216.258 10.6406 217.228 10.7626 218.024 11.0065C218.83 11.2504 219.524 11.6109 220.108 12.0882C221.338 13.0956 221.953 14.5007 221.953 16.3035C221.953 18.0745 221.232 19.4266 219.789 20.3598C218.527 21.1763 216.863 21.5846 214.795 21.5846C213.522 21.5846 212.053 21.3566 210.388 20.9006ZM218.215 16.2558C218.215 14.7393 217.197 13.9811 215.16 13.9811C213.22 13.9811 211.862 14.6916 211.088 16.1126C210.813 16.611 210.632 17.2261 210.547 17.9578C211.459 18.4138 212.621 18.6418 214.031 18.6418C216.82 18.6418 218.215 17.8465 218.215 16.2558Z" fill="#1E0342"/>
</g>
<g id="Group 27">
<path id="Rectangle 2650" d="M0 66.1141C0 55.0421 8.97565 46.0664 20.0477 46.0664H107.756C118.828 46.0664 127.804 55.0421 127.804 66.1141V86.1617C127.804 97.2338 118.828 106.209 107.756 106.209H20.0477C8.97565 106.209 0 97.2338 0 86.1617V66.1141Z" fill="#1E0342"/>
<g id="Group 26">
<path id="V" d="M20.1125 66.4162C20.07 66.3102 20.0488 66.1723 20.0488 66.0027C20.0488 65.8224 20.1072 65.6421 20.2238 65.4618C20.3511 65.2815 20.5366 65.1914 20.7805 65.1914H23.5006C23.7127 65.1914 23.893 65.2656 24.0415 65.4141C24.2005 65.552 24.3066 65.7163 24.3596 65.9072L30.4202 85.8227C30.4414 85.8758 30.505 85.9023 30.6111 85.9023C30.7277 85.9023 30.8019 85.8705 30.8338 85.8068L32.5676 81.1779C34.5295 75.6847 35.8975 70.7058 36.6716 66.2413C36.7777 65.5414 37.1753 65.1914 37.8646 65.1914H39.6303C40.0227 65.1914 40.3143 65.2868 40.5052 65.4777C40.7067 65.658 40.8074 65.833 40.8074 66.0027V66.3526C40.8074 67.6994 40.1287 70.4725 38.7713 74.672C38.432 75.7218 38.0714 76.7664 37.6897 77.8056C36.661 80.6159 35.9346 82.5247 35.5104 83.5321L34.4128 86.1409C33.8932 87.3074 33.5326 88.0656 33.3311 88.4156C33.1403 88.7655 32.9494 89.0094 32.7585 89.1473C32.3767 89.4336 31.7776 89.5768 30.961 89.5768H30.1179C29.312 89.5768 28.7658 89.4866 28.4795 89.3064C27.9917 88.9988 27.6258 88.5004 27.3819 87.8111L20.1125 66.4162Z" fill="#FAF5FF"/>
<path id="a_3" d="M59.861 88.3336C59.861 88.8956 59.5853 89.1767 59.0339 89.1767H57.4909C57.0773 89.1767 56.8281 89.0971 56.7433 88.9381C56.6584 88.7684 56.6107 88.6199 56.6001 88.4927C56.5895 88.3548 56.5683 88.1904 56.5365 87.9996C56.4729 87.4799 56.3827 86.9179 56.2661 86.3134C55.4389 87.8299 54.1398 88.832 52.3689 89.3198C51.7432 89.4895 51.0539 89.5743 50.301 89.5743C49.548 89.5743 48.7951 89.4471 48.0422 89.1926C47.2892 88.9487 46.6211 88.5828 46.0379 88.095C44.7229 86.9921 44.0654 85.5446 44.0654 83.7524C44.0654 81.7905 44.7865 80.29 46.2288 79.2507C47.4165 78.413 48.9436 77.9941 50.81 77.9941C52.6764 77.9941 54.2565 78.5402 55.5503 79.6325C55.5821 79.2719 55.598 78.8212 55.598 78.2804C55.598 77.7396 55.4919 77.1987 55.2798 76.6579C55.0677 76.117 54.7655 75.6664 54.3731 75.3058C53.5672 74.5953 52.4431 74.24 51.0009 74.24C49.7071 74.24 48.3921 74.5953 47.0559 75.3058C46.8014 75.4437 46.5787 75.5126 46.3878 75.5126C46.1015 75.5126 45.8258 75.2316 45.5607 74.6695C45.2744 74.0969 45.1312 73.6833 45.1312 73.4288C45.1312 72.9622 45.4811 72.5115 46.1811 72.0767C47.5172 71.2495 49.3041 70.8359 51.5417 70.8359C53.5778 70.8359 55.2639 71.3927 56.6001 72.5062C58.1802 73.8424 58.9703 75.73 58.9703 78.169C58.9703 79.2507 58.7953 80.6134 58.4453 82.2571C59.3467 84.8235 59.8186 86.8489 59.861 88.3336ZM49.2034 81.589C48.7686 81.9072 48.4558 82.2253 48.2649 82.5435C48.0846 82.8616 47.9945 83.2381 47.9945 83.6729C47.9945 84.097 48.0687 84.4788 48.2171 84.8182C48.3762 85.1469 48.5936 85.4226 48.8693 85.6453C49.4526 86.1013 50.1048 86.3293 50.8259 86.3293C51.5576 86.3293 52.1568 86.2445 52.6234 86.0748C53.09 85.9051 53.493 85.6877 53.8323 85.4226C54.564 84.85 54.9299 84.2455 54.9299 83.6092C54.8663 82.8139 54.4262 82.1882 53.6096 81.7322C52.8779 81.308 52.0136 81.0959 51.0168 81.0959C50.2426 81.0959 49.6382 81.2603 49.2034 81.589Z" fill="#FAF5FF"/>
<path id="u" d="M79.1215 88.0958C79.1215 88.8169 78.7928 89.1774 78.1353 89.1774H77.4195C76.7832 89.1774 76.3643 88.9229 76.1629 88.4139C75.9402 87.8306 75.7015 87.0194 75.447 85.9801C75.0016 87.0936 74.2434 87.9738 73.1723 88.6207C72.1119 89.257 70.7863 89.5751 69.1956 89.5751C67.1171 89.5751 65.5847 88.9282 64.5985 87.6345C63.6123 86.3301 63.1191 84.4106 63.1191 81.8761V72.2842C63.1191 71.9873 63.2093 71.7381 63.3896 71.5366C63.5804 71.3351 63.8456 71.2344 64.1849 71.2344H65.9347C66.6346 71.2344 66.9845 71.5843 66.9845 72.2842V81.7012C66.9845 84.2357 67.5731 85.6991 68.7502 86.0915C69.132 86.2187 69.5827 86.2824 70.1023 86.2824C70.6325 86.2824 71.1734 86.1604 71.7248 85.9165C72.2869 85.6726 72.7906 85.3492 73.236 84.9462C74.2328 84.0236 74.7312 82.9684 74.7312 81.7807V72.2842C74.7312 71.9873 74.8214 71.7381 75.0016 71.5366C75.1819 71.3351 75.4682 71.2344 75.8606 71.2344H77.5309C77.902 71.2344 78.1724 71.3351 78.3421 71.5366C78.5118 71.7381 78.5966 71.9873 78.5966 72.2842V82.2261C78.5966 84.4637 78.7557 86.2665 79.0738 87.6345C79.1056 87.7511 79.1215 87.9049 79.1215 88.0958Z" fill="#FAF5FF"/>
<path id="l" d="M88.7193 84.9302C88.7193 85.6831 88.9844 86.0596 89.5147 86.0596C89.6843 86.0596 89.9017 86.0119 90.1669 85.9164C90.6547 85.7361 90.9516 85.646 91.0576 85.646C91.3016 85.646 91.4924 85.7998 91.6303 86.1073L92.1234 87.2367C92.187 87.3958 92.2189 87.5442 92.2189 87.6821C92.2189 87.926 92.0174 88.2229 91.6144 88.5729C90.8084 89.241 89.7533 89.575 88.4489 89.575C86.0735 89.575 84.8857 87.9896 84.8857 84.8188V62.1355C84.8857 61.8492 84.9706 61.6053 85.1403 61.4038C85.3099 61.2023 85.5114 61.1016 85.7447 61.1016H87.8763C88.1202 61.1016 88.3216 61.2023 88.4807 61.4038C88.6398 61.6053 88.7193 61.8492 88.7193 62.1355V84.9302Z" fill="#FAF5FF"/>
<path id="t" d="M107.121 73.7814C107.121 74.3753 106.787 74.6722 106.119 74.6722H101.634V84.6618C101.634 85.7435 102.169 86.2843 103.24 86.2843C103.919 86.2843 104.804 85.945 105.897 85.2663C106.109 85.1284 106.337 85.0595 106.581 85.0595C106.835 85.0595 107.037 85.2345 107.185 85.5844L107.551 86.4116C107.689 86.7297 107.758 87.0001 107.758 87.2228C107.758 87.4455 107.588 87.7053 107.249 88.0023C106.92 88.2886 106.496 88.5484 105.976 88.7817C104.799 89.3119 103.733 89.5771 102.779 89.5771C101.824 89.5771 101.066 89.4816 100.504 89.2907C99.9527 89.0892 99.4808 88.7923 99.0884 88.3999C98.24 87.5728 97.8159 86.3798 97.8159 84.8209V74.6722H96.4797C95.8116 74.6722 95.4775 74.37 95.4775 73.7655V72.8588C95.4775 72.6149 95.5412 72.424 95.6684 72.2862C95.7957 72.1483 96.0449 72.0423 96.416 71.968L98.0067 71.5067L98.6112 67.7686C98.7279 67.0687 99.0142 66.7188 99.4702 66.7188H100.79C101.034 66.7188 101.236 66.8195 101.395 67.021C101.554 67.2119 101.634 67.4611 101.634 67.7686V71.3636H106.119C106.787 71.3636 107.121 71.6552 107.121 72.2385V73.7814Z" fill="#FAF5FF"/>
</g>
</g>
</g>
</svg>
