<svg width="134" height="18" viewBox="0 0 134 18" fill="none" xmlns="http://www.w3.org/2000/svg">
<g id="Group 28">
<path id="T" d="M4.04549 4.36906H0.601099C0.435717 4.36906 0.292598 4.31817 0.171743 4.2164C0.0572475 4.10826 0 3.97786 0 3.8252V2.82337C0 2.67707 0.0572475 2.55304 0.171743 2.45126C0.292598 2.34313 0.435717 2.28906 0.601099 2.28906H10.0279C10.1932 2.28906 10.3173 2.34313 10.4 2.45126C10.489 2.55304 10.5335 2.68025 10.5335 2.83291V3.83475C10.5335 3.98104 10.489 4.10826 10.4 4.2164C10.3109 4.31817 10.1837 4.36906 10.0183 4.36906H6.44989V16.3052C6.44989 16.4705 6.39582 16.6137 6.28768 16.7345C6.18591 16.8554 6.06188 16.9158 5.91558 16.9158H4.57026C4.42396 16.9158 4.29992 16.8554 4.19815 16.7345C4.09638 16.6137 4.04549 16.4705 4.04549 16.3052V4.36906Z" fill="#1E0342"/>
<path id="h" d="M13.1963 0.601099C13.1963 0.429356 13.244 0.286238 13.3394 0.171743C13.4412 0.0572475 13.562 0 13.702 0H15.0091C15.1554 0 15.2763 0.0572475 15.3717 0.171743C15.4671 0.286238 15.5148 0.429356 15.5148 0.601099V7.82383C16.0618 6.89514 16.8665 6.30041 17.9288 6.03961C18.2659 5.95692 18.692 5.91558 19.2073 5.91558C19.7289 5.91558 20.2155 6.03007 20.6671 6.25906C21.1187 6.48169 21.4781 6.79019 21.7453 7.18456C22.2223 7.90334 22.4608 8.96242 22.4608 10.3618V16.2869C22.4608 16.4777 22.4036 16.6304 22.2891 16.7449C22.1746 16.8594 22.006 16.9166 21.7834 16.9166H20.8484C20.6067 16.9166 20.4286 16.8562 20.3141 16.7354C20.1996 16.6145 20.1423 16.465 20.1423 16.2869V10.3523C20.1423 8.72388 19.5444 7.9097 18.3486 7.9097C17.6807 7.9097 17.051 8.2023 16.4594 8.78749C15.8297 9.42358 15.5148 10.1551 15.5148 10.982V16.2869C15.5148 16.465 15.4607 16.6145 15.3526 16.7354C15.2445 16.8562 15.0696 16.9166 14.8278 16.9166H13.7878C13.6034 16.9166 13.4571 16.8562 13.3489 16.7354C13.2472 16.6145 13.1963 16.465 13.1963 16.2869V0.601099Z" fill="#1E0342"/>
<path id="e" d="M27.5902 12.0604L27.5806 12.2416C27.5806 13.1131 27.8573 13.8128 28.4107 14.3407C28.9895 14.9005 29.7751 15.1803 30.7674 15.1803C31.6706 15.1803 32.5103 14.91 33.2863 14.3693C33.4326 14.2676 33.563 14.2167 33.6775 14.2167C33.9128 14.2167 34.0909 14.3344 34.2118 14.5697L34.4694 15.104C34.5266 15.2312 34.5553 15.368 34.5553 15.5143C34.5553 15.6606 34.4885 15.8133 34.3549 15.9723C34.2277 16.1249 34.0591 16.2649 33.8492 16.3921C33.6393 16.5193 33.3944 16.6306 33.1145 16.726C32.841 16.8214 32.558 16.901 32.2654 16.9646C31.6802 17.0918 31.0695 17.1554 30.4334 17.1554C29.7974 17.1554 29.1549 17.0345 28.5061 16.7928C27.8637 16.5511 27.3071 16.1981 26.8364 15.7337C25.825 14.7478 25.3193 13.4152 25.3193 11.736C25.3193 8.79089 26.3562 6.95897 28.4298 6.24019C29.0786 6.01756 29.7433 5.90625 30.4239 5.90625C31.1109 5.90625 31.6929 5.9794 32.17 6.1257C32.6534 6.272 33.07 6.48827 33.4199 6.7745C34.1577 7.37878 34.5266 8.22159 34.5266 9.30294C34.5266 10.3652 34.0941 11.1762 33.229 11.736C32.4721 12.2257 31.4734 12.4706 30.2331 12.4706C29.4698 12.4706 28.5888 12.3339 27.5902 12.0604ZM32.2844 9.27431C32.2844 8.36471 31.6738 7.90991 30.4525 7.90991C29.2885 7.90991 28.4743 8.33609 28.01 9.18844C27.8446 9.4874 27.7365 9.85633 27.6856 10.2952C28.2326 10.5687 28.9291 10.7055 29.7751 10.7055C31.448 10.7055 32.2844 10.2284 32.2844 9.27431Z" fill="#1E0342"/>
<path id="H" d="M37.9609 2.8997C37.9609 2.73432 38.0118 2.5912 38.1136 2.47035C38.2217 2.34949 38.3489 2.28906 38.4952 2.28906H39.831C39.9773 2.28906 40.1014 2.34949 40.2031 2.47035C40.3049 2.5912 40.3558 2.73432 40.3558 2.8997V8.60537H47.464V2.8997C47.464 2.73432 47.5149 2.5912 47.6167 2.47035C47.7248 2.34949 47.852 2.28906 47.9983 2.28906H49.3341C49.4804 2.28906 49.6044 2.34949 49.7062 2.47035C49.808 2.5912 49.8589 2.73432 49.8589 2.8997V16.2956C49.8589 16.461 49.8048 16.6041 49.6967 16.725C49.5949 16.8458 49.4709 16.9063 49.3246 16.9063H47.9888C47.8425 16.9063 47.7185 16.8458 47.6167 16.725C47.5149 16.6041 47.464 16.461 47.464 16.2956V10.714H40.3558V16.3052C40.3558 16.4705 40.3017 16.6137 40.1936 16.7345C40.0918 16.8554 39.9678 16.9158 39.8215 16.9158H38.4857C38.3394 16.9158 38.2154 16.8554 38.1136 16.7345C38.0118 16.6137 37.9609 16.4705 37.9609 16.3052V2.8997Z" fill="#1E0342"/>
<path id="a" d="M62.2977 16.4094C62.2977 16.7466 62.1323 16.9151 61.8016 16.9151H60.8761C60.628 16.9151 60.4785 16.8674 60.4276 16.772C60.3767 16.6702 60.3481 16.5812 60.3417 16.5049C60.3354 16.4222 60.3227 16.3236 60.3036 16.2091C60.2654 15.8974 60.2114 15.5603 60.1414 15.1977C59.6452 16.1073 58.866 16.7084 57.8038 17.001C57.4285 17.1028 57.015 17.1537 56.5634 17.1537C56.1118 17.1537 55.6602 17.0773 55.2086 16.9247C54.7569 16.7784 54.3562 16.5589 54.0064 16.2663C53.2176 15.6048 52.8232 14.7365 52.8232 13.6616C52.8232 12.4848 53.2558 11.5847 54.1209 10.9614C54.8333 10.4589 55.7492 10.2076 56.8687 10.2076C57.9882 10.2076 58.936 10.5352 59.712 11.1904C59.7311 10.9741 59.7407 10.7038 59.7407 10.3794C59.7407 10.055 59.677 9.73056 59.5498 9.40616C59.4226 9.08176 59.2413 8.81142 59.006 8.59515C58.5226 8.16898 57.8483 7.95589 56.9832 7.95589C56.2072 7.95589 55.4185 8.16898 54.617 8.59515C54.4643 8.67784 54.3308 8.71919 54.2163 8.71919C54.0445 8.71919 53.8791 8.55063 53.7201 8.2135C53.5484 7.87002 53.4625 7.62195 53.4625 7.46929C53.4625 7.18941 53.6724 6.91907 54.0922 6.65828C54.8937 6.16214 55.9655 5.91406 57.3076 5.91406C58.5289 5.91406 59.5403 6.24801 60.3417 6.91589C61.2895 7.71736 61.7634 8.84959 61.7634 10.3126C61.7634 10.9614 61.6584 11.7788 61.4485 12.7647C61.9892 14.304 62.2723 15.5189 62.2977 16.4094ZM55.9051 12.3639C55.6443 12.5548 55.4566 12.7456 55.3421 12.9364C55.234 13.1272 55.1799 13.3531 55.1799 13.6139C55.1799 13.8683 55.2245 14.0973 55.3135 14.3008C55.4089 14.498 55.5393 14.6634 55.7047 14.797C56.0545 15.0705 56.4457 15.2072 56.8783 15.2072C57.3172 15.2072 57.6766 15.1564 57.9564 15.0546C58.2363 14.9528 58.478 14.8224 58.6816 14.6634C59.1205 14.3199 59.3399 13.9573 59.3399 13.5757C59.3018 13.0986 59.0378 12.7233 58.548 12.4498C58.1091 12.1954 57.5907 12.0682 56.9928 12.0682C56.5284 12.0682 56.1659 12.1668 55.9051 12.3639Z" fill="#1E0342"/>
<path id="r" d="M64.9795 6.83956C64.9795 6.38158 65.1799 6.15259 65.5806 6.15259H66.0958C66.4457 6.15259 66.6937 6.30525 66.84 6.61057C67.0499 7.05583 67.2026 7.66965 67.298 8.45204C67.298 8.46476 67.3012 8.47112 67.3076 8.47112C67.3203 8.47112 67.3425 8.36298 67.3743 8.14672C67.4062 7.93045 67.4984 7.66647 67.651 7.35479C67.8037 7.03675 67.9913 6.76959 68.214 6.55333C68.6656 6.12715 69.219 5.91406 69.8742 5.91406C70.6057 5.91406 71.1145 6.03492 71.4008 6.27663C71.5343 6.38476 71.5884 6.53424 71.563 6.72507L71.4103 7.92727C71.3721 8.25167 71.2067 8.41387 70.9142 8.41387C70.7742 8.41387 70.6025 8.38525 70.3989 8.328C70.0046 8.22623 69.6929 8.17534 69.4639 8.17534C69.2349 8.17534 68.9932 8.27711 68.7387 8.48066C68.4843 8.67785 68.2649 8.92592 68.0804 9.22488C67.7051 9.84824 67.5175 10.5129 67.5175 11.219V16.2854C67.5175 16.4635 67.4666 16.613 67.3648 16.7338C67.263 16.8547 67.1167 16.9151 66.9259 16.9151H65.8191C65.6156 16.9151 65.4597 16.8547 65.3516 16.7338C65.2498 16.613 65.1989 16.4635 65.1989 16.2854V9.71148C65.1989 8.59197 65.1608 7.85412 65.0844 7.49791C65.0145 7.13534 64.9795 6.91589 64.9795 6.83956Z" fill="#1E0342"/>
<path id="d" d="M80.9127 7.49942V0.601099C80.9127 0.435717 80.9604 0.295779 81.0558 0.181284C81.1576 0.0604279 81.2816 0 81.4279 0H82.7542C82.9005 0 83.0213 0.0604279 83.1167 0.181284C83.2121 0.295779 83.2598 0.435717 83.2598 0.601099V12.833C83.2598 14.1179 83.3616 15.1833 83.5652 16.0293C83.5842 16.1184 83.5938 16.2328 83.5938 16.3728C83.5938 16.5064 83.5334 16.6304 83.4125 16.7449C83.298 16.8594 83.1485 16.9166 82.9641 16.9166H82.4965C82.1213 16.9166 81.87 16.764 81.7428 16.4587C81.5774 16.0706 81.4406 15.5586 81.3325 14.9225C80.8427 15.9593 80.019 16.6495 78.8613 16.993C78.4797 17.1011 78.0026 17.1552 77.4301 17.1552C76.864 17.1552 76.2979 17.0089 75.7318 16.7163C75.172 16.4237 74.695 16.0261 74.3006 15.5236C73.4928 14.4804 73.0889 13.1828 73.0889 11.6308C73.0889 10.0279 73.4801 8.69844 74.2624 7.64254C75.1084 6.49123 76.2375 5.91558 77.6496 5.91558C79.0617 5.91558 80.1494 6.44353 80.9127 7.49942ZM75.5314 11.6976C75.5314 12.1301 75.5823 12.5531 75.6841 12.9666C75.7922 13.38 75.9544 13.7489 76.1707 14.0733C76.6541 14.8112 77.322 15.1801 78.1744 15.1801C78.9504 15.1801 79.631 14.843 80.2162 14.1688C80.8395 13.4691 81.1512 12.6422 81.1512 11.688C81.1512 10.5304 80.8491 9.60168 80.2448 8.90199C79.666 8.2341 78.9536 7.90016 78.1076 7.90016C77.2234 7.90016 76.5523 8.31679 76.0944 9.15006C75.7191 9.84975 75.5314 10.6989 75.5314 11.6976Z" fill="#1E0342"/>
<path id="w" d="M101.289 6.15625C101.702 6.15625 101.909 6.34708 101.909 6.72873C101.896 8.26169 101.585 10.0713 100.974 12.1577C100.497 13.7924 99.8832 15.0932 99.1326 16.0601C98.6301 16.7089 98.0799 17.0333 97.482 17.0333C96.8904 17.0333 96.4356 16.8902 96.1176 16.6039C95.7995 16.3177 95.5769 15.901 95.4497 15.354C95.1062 13.9228 94.8645 12.9464 94.7246 12.4249L94.362 11.0986C94.2602 10.7361 94.1807 10.4625 94.1235 10.2781C94.1107 10.3353 94.0917 10.4212 94.0662 10.5357C94.0471 10.6502 94.0217 10.7742 93.9899 10.9078L93.7895 11.7379C93.4142 13.0864 93.1216 13.9928 92.9117 14.4571C92.7082 14.9215 92.5332 15.284 92.387 15.5448C92.2407 15.7993 92.0689 16.0378 91.8717 16.2604C91.4137 16.7757 90.9112 17.0333 90.3642 17.0333C89.2193 17.0333 88.5068 16.4258 88.227 15.2109C87.9026 13.8433 87.5368 12.4885 87.1297 11.1463L85.8607 7.11992C85.8162 6.9927 85.7939 6.86548 85.7939 6.73827C85.7939 6.35026 86.0102 6.15625 86.4428 6.15625H87.5686C87.9503 6.15625 88.2111 6.39478 88.351 6.87184C88.7263 8.17581 89.0507 9.45752 89.3242 10.717L90.1448 14.4762C90.202 14.7116 90.2911 14.8292 90.4119 14.8292C90.5455 14.8292 90.6727 14.7052 90.7936 14.4571C90.9208 14.2091 91.0544 13.9069 91.1943 13.5507C91.3406 13.1882 91.4805 12.8033 91.6141 12.3962C91.7477 11.9828 91.8781 11.5566 92.0053 11.1177C92.1325 10.6724 92.2502 10.2272 92.3583 9.78193C92.5746 8.89777 92.7495 8.07086 92.8831 7.3012L92.9499 6.90047C93.0262 6.51882 93.3602 6.32799 93.9517 6.32799C94.3397 6.32799 94.5973 6.35344 94.7246 6.40432C94.9663 6.51246 95.1666 6.77961 95.3257 7.20579C95.4847 7.6256 95.6564 8.14401 95.8409 8.76101C96.0253 9.37801 96.2035 10.0141 96.3752 10.6693C96.8014 12.3549 97.1162 13.6525 97.3198 14.5621C97.3643 14.7466 97.4311 14.8388 97.5201 14.8388C97.641 14.8388 97.7937 14.6734 97.9781 14.3426C98.1626 14.0055 98.3534 13.5412 98.5506 12.9496C98.7478 12.3581 98.9195 11.722 99.0658 11.0414C99.3648 9.66743 99.5333 8.24896 99.5715 6.78597C99.5715 6.46157 99.7115 6.2612 99.9913 6.18487C100.061 6.16579 100.128 6.15625 100.192 6.15625H101.289Z" fill="#1E0342"/>
<path id="a_2" d="M113.103 16.4094C113.103 16.7466 112.938 16.9151 112.607 16.9151H111.682C111.434 16.9151 111.284 16.8674 111.233 16.772C111.182 16.6702 111.154 16.5812 111.147 16.5049C111.141 16.4222 111.128 16.3236 111.109 16.2091C111.071 15.8974 111.017 15.5603 110.947 15.1977C110.451 16.1073 109.672 16.7084 108.609 17.001C108.234 17.1028 107.821 17.1537 107.369 17.1537C106.917 17.1537 106.466 17.0773 106.014 16.9247C105.563 16.7784 105.162 16.5589 104.812 16.2663C104.023 15.6048 103.629 14.7365 103.629 13.6616C103.629 12.4848 104.061 11.5847 104.927 10.9614C105.639 10.4589 106.555 10.2076 107.674 10.2076C108.794 10.2076 109.742 10.5352 110.518 11.1904C110.537 10.9741 110.546 10.7038 110.546 10.3794C110.546 10.055 110.483 9.73056 110.355 9.40616C110.228 9.08176 110.047 8.81142 109.812 8.59515C109.328 8.16898 108.654 7.95589 107.789 7.95589C107.013 7.95589 106.224 8.16898 105.423 8.59515C105.27 8.67784 105.136 8.71919 105.022 8.71919C104.85 8.71919 104.685 8.55063 104.526 8.2135C104.354 7.87002 104.268 7.62195 104.268 7.46929C104.268 7.18941 104.478 6.91907 104.898 6.65828C105.699 6.16214 106.771 5.91406 108.113 5.91406C109.335 5.91406 110.346 6.24801 111.147 6.91589C112.095 7.71736 112.569 8.84959 112.569 10.3126C112.569 10.9614 112.464 11.7788 112.254 12.7647C112.795 14.304 113.078 15.5189 113.103 16.4094ZM106.711 12.3639C106.45 12.5548 106.262 12.7456 106.148 12.9364C106.04 13.1272 105.986 13.3531 105.986 13.6139C105.986 13.8683 106.03 14.0973 106.119 14.3008C106.215 14.498 106.345 14.6634 106.51 14.797C106.86 15.0705 107.251 15.2072 107.684 15.2072C108.123 15.2072 108.482 15.1564 108.762 15.0546C109.042 14.9528 109.284 14.8224 109.487 14.6634C109.926 14.3199 110.146 13.9573 110.146 13.5757C110.107 13.0986 109.843 12.7233 109.354 12.4498C108.915 12.1954 108.396 12.0682 107.798 12.0682C107.334 12.0682 106.972 12.1668 106.711 12.3639Z" fill="#1E0342"/>
<path id="r_2" d="M115.785 6.83956C115.785 6.38158 115.986 6.15259 116.386 6.15259H116.901C117.251 6.15259 117.499 6.30525 117.646 6.61057C117.856 7.05583 118.008 7.66965 118.104 8.45204C118.104 8.46476 118.107 8.47112 118.113 8.47112C118.126 8.47112 118.148 8.36298 118.18 8.14672C118.212 7.93045 118.304 7.66647 118.457 7.35479C118.609 7.03675 118.797 6.76959 119.02 6.55333C119.471 6.12715 120.025 5.91406 120.68 5.91406C121.411 5.91406 121.92 6.03492 122.206 6.27663C122.34 6.38476 122.394 6.53424 122.369 6.72507L122.216 7.92727C122.178 8.25167 122.012 8.41387 121.72 8.41387C121.58 8.41387 121.408 8.38525 121.205 8.328C120.81 8.22623 120.499 8.17534 120.27 8.17534C120.041 8.17534 119.799 8.27711 119.544 8.48066C119.29 8.67785 119.071 8.92592 118.886 9.22488C118.511 9.84824 118.323 10.5129 118.323 11.219V16.2854C118.323 16.4635 118.272 16.613 118.17 16.7338C118.069 16.8547 117.922 16.9151 117.732 16.9151H116.625C116.421 16.9151 116.265 16.8547 116.157 16.7338C116.055 16.613 116.005 16.4635 116.005 16.2854V9.71148C116.005 8.59197 115.966 7.85412 115.89 7.49791C115.82 7.13534 115.785 6.91589 115.785 6.83956Z" fill="#1E0342"/>
<path id="e_2" d="M126.194 12.0604L126.184 12.2416C126.184 13.1131 126.461 13.8128 127.014 14.3407C127.593 14.9005 128.379 15.1803 129.371 15.1803C130.274 15.1803 131.114 14.91 131.89 14.3693C132.036 14.2676 132.166 14.2167 132.281 14.2167C132.516 14.2167 132.694 14.3344 132.815 14.5697L133.073 15.104C133.13 15.2312 133.159 15.368 133.159 15.5143C133.159 15.6606 133.092 15.8133 132.958 15.9723C132.831 16.1249 132.663 16.2649 132.453 16.3921C132.243 16.5193 131.998 16.6306 131.718 16.726C131.445 16.8214 131.161 16.901 130.869 16.9646C130.284 17.0918 129.673 17.1554 129.037 17.1554C128.401 17.1554 127.758 17.0345 127.11 16.7928C126.467 16.5511 125.911 16.1981 125.44 15.7337C124.429 14.7478 123.923 13.4152 123.923 11.736C123.923 8.79089 124.96 6.95897 127.033 6.24019C127.682 6.01756 128.347 5.90625 129.027 5.90625C129.714 5.90625 130.296 5.9794 130.773 6.1257C131.257 6.272 131.674 6.48827 132.023 6.7745C132.761 7.37878 133.13 8.22159 133.13 9.30294C133.13 10.3652 132.698 11.1762 131.833 11.736C131.076 12.2257 130.077 12.4706 128.837 12.4706C128.073 12.4706 127.192 12.3339 126.194 12.0604ZM130.888 9.27431C130.888 8.36471 130.277 7.90991 129.056 7.90991C127.892 7.90991 127.078 8.33609 126.613 9.18844C126.448 9.4874 126.34 9.85633 126.289 10.2952C126.836 10.5687 127.533 10.7055 128.379 10.7055C130.052 10.7055 130.888 10.2284 130.888 9.27431Z" fill="#1E0342"/>
</g>
</svg>
