<svg width="77" height="37" viewBox="0 0 77 37" fill="none" xmlns="http://www.w3.org/2000/svg">
<g id="Group 27">
<path id="Rectangle 2650" d="M0 12.1812C0 5.53999 5.38374 0.15625 12.0249 0.15625H64.6339C71.2751 0.15625 76.6588 5.53999 76.6588 12.1812V24.2061C76.6588 30.8473 71.2751 36.231 64.6339 36.231H12.0249C5.38374 36.231 0 30.8473 0 24.2061V12.1812Z" fill="#1E0342"/>
<g id="Group 26">
<path id="V" d="M12.0636 12.3636C12.0381 12.3 12.0254 12.2173 12.0254 12.1155C12.0254 12.0074 12.0604 11.8992 12.1303 11.7911C12.2067 11.683 12.318 11.6289 12.4643 11.6289H14.0958C14.2231 11.6289 14.3312 11.6734 14.4202 11.7625C14.5157 11.8452 14.5793 11.9438 14.6111 12.0583L18.2463 24.0039C18.259 24.0357 18.2972 24.0516 18.3608 24.0516C18.4308 24.0516 18.4753 24.0325 18.4944 23.9944L19.5344 21.2179C20.7111 17.923 21.5317 14.9365 21.996 12.2586C22.0596 11.8388 22.2981 11.6289 22.7116 11.6289H23.7707C24.006 11.6289 24.1809 11.6862 24.2954 11.8006C24.4163 11.9088 24.4767 12.0137 24.4767 12.1155V12.3254C24.4767 13.1332 24.0696 14.7966 23.2554 17.3155C23.0519 17.9452 22.8356 18.5718 22.6066 19.1951C21.9896 20.8807 21.5539 22.0257 21.2995 22.63L20.6411 24.1947C20.3295 24.8944 20.1132 25.3492 19.9923 25.5591C19.8778 25.769 19.7633 25.9153 19.6489 25.998C19.4199 26.1698 19.0605 26.2556 18.5707 26.2556H18.065C17.5816 26.2556 17.254 26.2016 17.0823 26.0934C16.7897 25.909 16.5702 25.61 16.4239 25.1966L12.0636 12.3636Z" fill="#FAF5FF"/>
<path id="a" d="M35.9051 25.511C35.9051 25.8481 35.7397 26.0167 35.409 26.0167H34.4835C34.2354 26.0167 34.0859 25.969 34.035 25.8736C33.9842 25.7718 33.9555 25.6827 33.9492 25.6064C33.9428 25.5237 33.9301 25.4251 33.911 25.3106C33.8728 24.999 33.8188 24.6618 33.7488 24.2993C33.2527 25.2089 32.4735 25.81 31.4112 26.1026C31.0359 26.2043 30.6225 26.2552 30.1708 26.2552C29.7192 26.2552 29.2676 26.1789 28.816 26.0262C28.3644 25.8799 27.9636 25.6605 27.6138 25.3679C26.825 24.7064 26.4307 23.8381 26.4307 22.7631C26.4307 21.5864 26.8632 20.6863 27.7283 20.0629C28.4407 19.5604 29.3566 19.3092 30.4762 19.3092C31.5957 19.3092 32.5434 19.6368 33.3194 20.2919C33.3385 20.0757 33.3481 19.8053 33.3481 19.4809C33.3481 19.1565 33.2845 18.8321 33.1572 18.5077C33.03 18.1833 32.8487 17.913 32.6134 17.6967C32.13 17.2705 31.4557 17.0575 30.5907 17.0575C29.8146 17.0575 29.0259 17.2705 28.2244 17.6967C28.0718 17.7794 27.9382 17.8208 27.8237 17.8208C27.6519 17.8208 27.4866 17.6522 27.3275 17.3151C27.1558 16.9716 27.0699 16.7235 27.0699 16.5708C27.0699 16.291 27.2798 16.0206 27.6997 15.7598C28.5011 15.2637 29.5729 15.0156 30.9151 15.0156C32.1363 15.0156 33.1477 15.3496 33.9492 16.0175C34.8969 16.8189 35.3708 17.9511 35.3708 19.4141C35.3708 20.0629 35.2659 20.8803 35.056 21.8662C35.5966 23.4056 35.8797 24.6205 35.9051 25.511ZM29.5125 21.4655C29.2517 21.6563 29.064 21.8472 28.9496 22.038C28.8414 22.2288 28.7874 22.4546 28.7874 22.7154C28.7874 22.9698 28.8319 23.1988 28.9209 23.4024C29.0163 23.5996 29.1467 23.765 29.3121 23.8985C29.662 24.172 30.0532 24.3088 30.4857 24.3088C30.9246 24.3088 31.284 24.2579 31.5639 24.1561C31.8437 24.0544 32.0854 23.924 32.289 23.765C32.7279 23.4215 32.9473 23.0589 32.9473 22.6772C32.9092 22.2002 32.6452 21.8249 32.1554 21.5514C31.7165 21.2969 31.1981 21.1697 30.6002 21.1697C30.1359 21.1697 29.7733 21.2683 29.5125 21.4655Z" fill="#FAF5FF"/>
<path id="u" d="M47.4579 25.3676C47.4579 25.8002 47.2607 26.0164 46.8663 26.0164H46.437C46.0553 26.0164 45.8041 25.8638 45.6832 25.5585C45.5496 25.2086 45.4065 24.722 45.2538 24.0986C44.9867 24.7665 44.5319 25.2945 43.8894 25.6825C43.2534 26.0641 42.4583 26.255 41.5041 26.255C40.2574 26.255 39.3383 25.867 38.7467 25.0909C38.1552 24.3086 37.8594 23.1572 37.8594 21.637V15.8836C37.8594 15.7055 37.9134 15.556 38.0216 15.4352C38.1361 15.3143 38.2951 15.2539 38.4986 15.2539H39.5482C39.968 15.2539 40.1779 15.4638 40.1779 15.8836V21.532C40.1779 23.0523 40.5309 23.9301 41.237 24.1654C41.466 24.2418 41.7363 24.2799 42.048 24.2799C42.366 24.2799 42.6904 24.2068 43.0212 24.0605C43.3583 23.9142 43.6605 23.7202 43.9276 23.4785C44.5255 22.9251 44.8245 22.2922 44.8245 21.5798V15.8836C44.8245 15.7055 44.8786 15.556 44.9867 15.4352C45.0948 15.3143 45.2666 15.2539 45.5019 15.2539H46.5037C46.7264 15.2539 46.8886 15.3143 46.9904 15.4352C47.0921 15.556 47.143 15.7055 47.143 15.8836V21.8469C47.143 23.189 47.2384 24.2704 47.4293 25.0909C47.4483 25.1609 47.4579 25.2531 47.4579 25.3676Z" fill="#FAF5FF"/>
<path id="l" d="M53.2145 23.4686C53.2145 23.9202 53.3735 24.146 53.6915 24.146C53.7933 24.146 53.9237 24.1174 54.0827 24.0601C54.3753 23.952 54.5534 23.8979 54.617 23.8979C54.7633 23.8979 54.8778 23.9902 54.9605 24.1746L55.2563 24.8521C55.2945 24.9475 55.3136 25.0365 55.3136 25.1192C55.3136 25.2655 55.1927 25.4436 54.951 25.6535C54.4676 26.0543 53.8347 26.2546 53.0523 26.2546C51.6275 26.2546 50.915 25.3037 50.915 23.4018V9.79596C50.915 9.62422 50.9659 9.47792 51.0677 9.35707C51.1695 9.23621 51.2903 9.17578 51.4303 9.17578H52.7088C52.8551 9.17578 52.9759 9.23621 53.0714 9.35707C53.1668 9.47792 53.2145 9.62422 53.2145 9.79596V23.4686Z" fill="#FAF5FF"/>
<path id="t" d="M64.2528 16.7793C64.2528 17.1355 64.0524 17.3136 63.6517 17.3136H60.961V23.3055C60.961 23.9543 61.2822 24.2787 61.9247 24.2787C62.3318 24.2787 62.8629 24.0752 63.5181 23.6681C63.6453 23.5854 63.782 23.544 63.9283 23.544C64.081 23.544 64.2019 23.649 64.2909 23.8589L64.5104 24.355C64.5931 24.5459 64.6344 24.7081 64.6344 24.8416C64.6344 24.9752 64.5326 25.1311 64.3291 25.3092C64.1319 25.4809 63.8775 25.6367 63.5658 25.7767C62.8597 26.0947 62.2205 26.2537 61.648 26.2537C61.0755 26.2537 60.6207 26.1965 60.2836 26.082C59.9528 25.9611 59.6698 25.783 59.4344 25.5477C58.9256 25.0515 58.6711 24.336 58.6711 23.4009V17.3136H57.8697C57.4689 17.3136 57.2686 17.1323 57.2686 16.7697V16.2259C57.2686 16.0796 57.3067 15.9651 57.383 15.8824C57.4594 15.7997 57.6089 15.7361 57.8315 15.6916L58.7856 15.4149L59.1482 13.1727C59.2182 12.7529 59.3899 12.543 59.6634 12.543H60.4553C60.6016 12.543 60.7225 12.6034 60.8179 12.7243C60.9133 12.8387 60.961 12.9882 60.961 13.1727V15.329H63.6517C64.0524 15.329 64.2528 15.5039 64.2528 15.8538V16.7793Z" fill="#FAF5FF"/>
</g>
</g>
</svg>
