<svg width="32" height="33" viewBox="0 0 32 33" fill="none" xmlns="http://www.w3.org/2000/svg">
<g id="Linear / Shopping, Ecommerce / Cart Large Minimalistic">
<path id="Vector" d="M10 24.5C11.1046 24.5 12 25.3954 12 26.5C12 27.6046 11.1046 28.5 10 28.5C8.89543 28.5 8 27.6046 8 26.5C8 25.3954 8.89543 24.5 10 24.5Z" stroke="#0C0D0D" stroke-width="2"/>
<path id="Vector_2" d="M22 24.5001C23.1046 24.5001 24 25.3955 24 26.5001C24 27.6047 23.1046 28.5001 22 28.5001C20.8954 28.5001 20 27.6047 20 26.5001C20 25.3955 20.8954 24.5001 22 24.5001Z" stroke="#0C0D0D" stroke-width="2"/>
<path id="Vector_3" d="M3.01527 4.62245L3.34695 3.67905H3.34695L3.01527 4.62245ZM2.99867 3.55661C2.47765 3.37343 1.90678 3.6473 1.7236 4.16832C1.54042 4.68934 1.81429 5.26021 2.33531 5.44339L2.99867 3.55661ZM6.11478 6.26398L6.94041 5.69977V5.69977L6.11478 6.26398ZM7.85062 19.9482L7.12493 20.6363L7.85062 19.9482ZM27.544 13.677L28.5234 13.8789L28.5247 13.8727L27.544 13.677ZM26.8777 16.91L27.8571 17.1118V17.1118L26.8777 16.91ZM27.6463 9.42944L26.8537 10.0392L27.6463 9.42944ZM25.5118 20.5672L24.8801 19.792L24.8801 19.792L25.5118 20.5672ZM7.6111 13.5133V9.88448H5.6111V13.5133H7.6111ZM3.34695 3.67905L2.99867 3.55661L2.33531 5.44339L2.68359 5.56584L3.34695 3.67905ZM14.5836 22.1667H21.6541V20.1667H14.5836V22.1667ZM7.6111 9.88448C7.6111 8.9416 7.61246 8.15479 7.54325 7.51542C7.47161 6.85358 7.31639 6.24996 6.94041 5.69977L5.28914 6.82818C5.40949 7.00429 5.50243 7.24619 5.55487 7.73065C5.60974 8.23759 5.6111 8.89788 5.6111 9.88448H7.6111ZM2.68359 5.56584C3.57374 5.8788 4.15874 6.0862 4.5892 6.29741C4.9935 6.49579 5.17173 6.65636 5.28914 6.82818L6.94041 5.69977C6.56151 5.14529 6.05771 4.79017 5.4702 4.5019C4.90885 4.22646 4.19226 3.97625 3.34695 3.67905L2.68359 5.56584ZM5.6111 13.5133C5.6111 15.45 5.62927 16.8465 5.81201 17.9135C6.00711 19.0526 6.39661 19.8681 7.12493 20.6363L8.5763 19.2602C8.14941 18.8099 7.91916 18.3691 7.7833 17.5758C7.63509 16.7105 7.6111 15.4987 7.6111 13.5133H5.6111ZM14.5836 20.1667C12.6946 20.1667 11.3838 20.1643 10.3963 20.0243C9.44319 19.8891 8.93969 19.6435 8.5763 19.2602L7.12493 20.6363C7.91674 21.4714 8.92048 21.835 10.1155 22.0045C11.276 22.169 12.7541 22.1667 14.5836 22.1667V20.1667ZM6.6111 9.66H22.7854V7.66H6.6111V9.66ZM26.5646 13.4751L25.8983 16.7081L27.8571 17.1118L28.5234 13.8789L26.5646 13.4751ZM22.7854 9.66C23.9273 9.66 24.9322 9.66134 25.7253 9.74999C26.1194 9.79404 26.4143 9.85524 26.6215 9.92806C26.8367 10.0037 26.871 10.0617 26.8537 10.0392L28.4389 8.81971C28.1257 8.41247 27.6852 8.18194 27.2845 8.04116C26.8759 7.89757 26.4138 7.8145 25.9475 7.76237C25.0197 7.65866 23.8902 7.66 22.7854 7.66V9.66ZM28.5247 13.8727C28.7503 12.7422 28.9419 11.7937 28.9888 11.0338C29.037 10.2522 28.9481 9.48156 28.4389 8.81971L26.8537 10.0392C26.9365 10.1468 27.0278 10.3405 26.9926 10.9106C26.9561 11.5025 26.8005 12.293 26.5634 13.4813L28.5247 13.8727ZM21.6541 22.1667C22.6698 22.1667 23.522 22.1684 24.2091 22.0843C24.9234 21.9969 25.5749 21.8058 26.1435 21.3424L24.8801 19.792C24.7131 19.9281 24.4764 20.0367 23.9662 20.0991C23.4286 20.1649 22.7199 20.1667 21.6541 20.1667V22.1667ZM25.8983 16.7081C25.6831 17.7519 25.5383 18.4457 25.3654 18.9589C25.2012 19.446 25.0471 19.6559 24.8801 19.792L26.1435 21.3424C26.7122 20.879 27.0309 20.2795 27.2607 19.5976C27.4817 18.9416 27.6521 18.1065 27.8571 17.1118L25.8983 16.7081Z" fill="#0C0D0D"/>
</g>
</svg>
